<svg xmlns="http://www.w3.org/2000/svg" xmlns:xlink="http://www.w3.org/1999/xlink" width="500" zoomAndPan="magnify" viewBox="0 0 375 374.999991" height="500" preserveAspectRatio="xMidYMid meet" version="1.0"><defs><clipPath id="id1"><path d="M 108.6875 143 L 122.9375 143 L 122.9375 354 L 108.6875 354 Z M 108.6875 143 " clip-rule="nonzero"/></clipPath><clipPath id="id2"><path d="M 144.335938 19.457031 L 266.585938 19.457031 L 266.585938 263.207031 L 144.335938 263.207031 Z M 144.335938 19.457031 " clip-rule="nonzero"/></clipPath><clipPath id="id3"><path d="M 182.027344 117.152344 L 228.527344 117.152344 L 228.527344 152 L 182.027344 152 Z M 182.027344 117.152344 " clip-rule="nonzero"/></clipPath></defs><g clip-path="url(#id1)"><path fill="#538056" d="M 108.6875 150.214844 L 108.6875 346.761719 C 108.6875 350.636719 111.878906 353.78125 115.8125 353.78125 C 119.75 353.78125 122.9375 350.636719 122.9375 346.761719 L 122.9375 150.214844 C 122.9375 146.335938 119.75 143.195312 115.8125 143.195312 C 111.878906 143.195312 108.6875 146.335938 108.6875 150.214844 Z M 108.6875 150.214844 " fill-opacity="1" fill-rule="nonzero"/></g><g clip-path="url(#id2)"><path fill="#538056" d="M 266.585938 141.335938 C 266.585938 74.027344 211.851562 19.464844 144.335938 19.464844 L 144.335938 263.203125 C 211.851562 263.203125 266.585938 208.640625 266.585938 141.335938 Z M 266.585938 141.335938 " fill-opacity="1" fill-rule="nonzero"/></g><path fill="#824737" d="M 189.816406 152.746094 C 197.1875 154.894531 203.878906 158.355469 209.890625 163.125 C 208.683594 163.367188 207.46875 163.511719 206.238281 163.5625 C 205.007812 163.613281 203.78125 163.566406 202.558594 163.421875 C 201.335938 163.277344 200.132812 163.039062 198.945312 162.703125 C 197.761719 162.371094 196.613281 161.945312 195.496094 161.425781 C 194.378906 160.910156 193.308594 160.308594 192.285156 159.621094 C 191.265625 158.933594 190.304688 158.171875 189.40625 157.335938 C 188.503906 156.496094 187.675781 155.589844 186.921875 154.621094 C 186.164062 153.652344 185.488281 152.628906 184.894531 151.550781 C 186.414062 151.847656 188.066406 152.238281 189.816406 152.746094 Z M 189.816406 152.746094 " fill-opacity="1" fill-rule="nonzero"/><path fill="#b55232" d="M 190.183594 151.246094 C 189.414062 151.019531 188.660156 150.820312 187.929688 150.644531 C 189.789062 150.695312 191.808594 150.816406 193.929688 151.035156 C 201.078125 151.773438 210.617188 153.789062 219.128906 159.011719 C 216.902344 160.667969 214.453125 161.886719 211.785156 162.660156 C 209.46875 160.746094 207.027344 159.015625 204.453125 157.464844 C 199.96875 154.769531 195.214844 152.695312 190.183594 151.246094 Z M 190.183594 151.246094 " fill-opacity="1" fill-rule="nonzero"/><path fill="#f3ac71" d="M 224.914062 152.789062 C 223.671875 154.742188 222.171875 156.472656 220.414062 157.980469 C 217.226562 155.984375 213.859375 154.351562 210.316406 153.085938 C 205.363281 151.300781 199.890625 150.089844 194.046875 149.492188 C 191.519531 149.230469 189.125 149.109375 186.976562 149.074219 C 189.574219 148.382812 192.210938 147.890625 194.886719 147.601562 C 202.140625 146.808594 212.945312 147.171875 224.914062 152.789062 Z M 224.914062 152.789062 " fill-opacity="1" fill-rule="nonzero"/><g clip-path="url(#id3)"><path fill="#ffffff" d="M 228.515625 140.378906 C 228.519531 144.308594 227.582031 148 225.703125 151.449219 C 220.878906 149.152344 215.832031 147.53125 210.570312 146.589844 C 209.292969 146.363281 208.011719 146.183594 206.726562 146.050781 C 206.644531 144.589844 206.769531 143.152344 207.109375 141.730469 C 207.429688 141.964844 207.789062 142.132812 208.175781 142.222656 C 208.566406 142.316406 208.957031 142.332031 209.351562 142.269531 C 209.75 142.203125 210.117188 142.066406 210.453125 141.851562 C 210.792969 141.640625 211.078125 141.371094 211.308594 141.042969 C 211.007812 140.800781 210.675781 140.625 210.304688 140.511719 C 209.9375 140.398438 209.5625 140.359375 209.175781 140.394531 C 208.792969 140.425781 208.429688 140.53125 208.085938 140.707031 C 207.742188 140.882812 207.445312 141.113281 207.191406 141.402344 C 207.40625 140.578125 207.6875 139.777344 208.035156 139 C 208.355469 139.242188 208.714844 139.414062 209.105469 139.515625 C 209.496094 139.613281 209.894531 139.632812 210.292969 139.570312 C 210.691406 139.507812 211.066406 139.371094 211.410156 139.15625 C 211.753906 138.945312 212.039062 138.671875 212.273438 138.34375 C 211.976562 138.101562 211.648438 137.925781 211.28125 137.816406 C 210.917969 137.703125 210.546875 137.660156 210.164062 137.691406 C 209.785156 137.71875 209.425781 137.820312 209.082031 137.988281 C 208.742188 138.15625 208.441406 138.382812 208.1875 138.664062 C 208.554688 137.890625 208.976562 137.148438 209.449219 136.4375 C 209.753906 136.699219 210.09375 136.890625 210.472656 137.015625 C 210.851562 137.140625 211.242188 137.1875 211.640625 137.152344 C 212.039062 137.121094 212.414062 137.015625 212.769531 136.832031 C 213.125 136.648438 213.433594 136.402344 213.6875 136.097656 C 213.433594 135.851562 213.144531 135.660156 212.824219 135.519531 C 212.5 135.378906 212.164062 135.296875 211.8125 135.273438 C 211.460938 135.253906 211.117188 135.292969 210.777344 135.390625 C 210.441406 135.492188 210.132812 135.648438 209.847656 135.855469 C 210.359375 135.152344 210.910156 134.484375 211.507812 133.851562 C 211.707031 134.128906 211.949219 134.359375 212.238281 134.542969 C 212.53125 134.722656 212.84375 134.84375 213.183594 134.898438 C 213.519531 134.957031 213.855469 134.945312 214.1875 134.867188 C 214.523438 134.789062 214.828125 134.652344 215.105469 134.453125 C 214.945312 134.191406 214.742188 133.964844 214.5 133.777344 C 214.257812 133.589844 213.988281 133.449219 213.695312 133.355469 C 213.402344 133.261719 213.101562 133.222656 212.792969 133.238281 C 212.488281 133.253906 212.191406 133.320312 211.910156 133.441406 C 212.449219 132.898438 213.023438 132.386719 213.625 131.914062 C 213.625 131.917969 213.625 131.917969 213.625 131.921875 C 214.019531 132.039062 214.421875 132.074219 214.832031 132.023438 C 215.242188 131.976562 215.625 131.847656 215.980469 131.640625 C 216.335938 131.429688 216.636719 131.160156 216.878906 130.828125 C 217.125 130.496094 217.289062 130.128906 217.382812 129.730469 C 216.996094 129.613281 216.601562 129.578125 216.203125 129.621094 C 215.800781 129.664062 215.425781 129.785156 215.074219 129.984375 C 214.722656 130.179688 214.421875 130.4375 214.175781 130.753906 C 213.925781 131.074219 213.75 131.425781 213.648438 131.816406 C 213.160156 132.085938 212.695312 132.367188 212.261719 132.65625 C 212.441406 132.429688 212.582031 132.183594 212.679688 131.910156 C 212.777344 131.636719 212.832031 131.359375 212.835938 131.070312 C 212.84375 130.777344 212.800781 130.496094 212.714844 130.222656 C 212.625 129.945312 212.496094 129.691406 212.328125 129.457031 C 212.027344 129.648438 211.773438 129.890625 211.570312 130.179688 C 211.367188 130.472656 211.230469 130.792969 211.15625 131.140625 C 211.085938 131.488281 211.082031 131.835938 211.148438 132.183594 C 211.21875 132.535156 211.351562 132.855469 211.550781 133.148438 C 211.058594 133.511719 210.601562 133.882812 210.179688 134.257812 C 210.308594 133.996094 210.390625 133.71875 210.425781 133.429688 C 210.464844 133.140625 210.453125 132.851562 210.390625 132.5625 C 210.332031 132.277344 210.226562 132.007812 210.078125 131.757812 C 209.929688 131.503906 209.742188 131.285156 209.519531 131.09375 C 209.277344 131.347656 209.089844 131.632812 208.960938 131.957031 C 208.832031 132.285156 208.769531 132.621094 208.773438 132.96875 C 208.78125 133.320312 208.851562 133.65625 208.992188 133.976562 C 209.132812 134.296875 209.328125 134.578125 209.578125 134.824219 C 209.171875 135.226562 208.789062 135.648438 208.429688 136.09375 C 208.496094 135.542969 208.402344 135.023438 208.140625 134.53125 C 207.878906 134.042969 207.5 133.671875 207.003906 133.421875 C 206.832031 133.707031 206.71875 134.019531 206.667969 134.351562 C 206.613281 134.679688 206.625 135.011719 206.695312 135.339844 C 206.769531 135.667969 206.902344 135.96875 207.089844 136.246094 C 207.277344 136.523438 207.511719 136.757812 207.789062 136.945312 C 207.492188 137.378906 207.222656 137.808594 206.984375 138.238281 C 206.984375 137.996094 206.949219 137.757812 206.882812 137.523438 C 206.671875 136.792969 206.375 136.59375 205.746094 136.277344 C 205.382812 136.878906 205.089844 137.582031 205.300781 138.308594 C 205.484375 138.945312 205.863281 139.136719 206.386719 139.46875 C 205.917969 140.539062 205.585938 141.652344 205.386719 142.804688 C 205.167969 141.109375 204.71875 139.476562 204.039062 137.910156 C 204.390625 137.683594 204.691406 137.398438 204.933594 137.058594 C 205.175781 136.714844 205.34375 136.339844 205.4375 135.933594 C 205.535156 135.523438 205.550781 135.113281 205.488281 134.699219 C 205.421875 134.285156 205.285156 133.898438 205.070312 133.539062 C 204.527344 133.8125 204.101562 134.207031 203.78125 134.722656 C 203.464844 135.234375 203.300781 135.796875 203.296875 136.398438 C 202.996094 135.855469 202.667969 135.324219 202.308594 134.8125 C 202.652344 134.582031 202.9375 134.296875 203.171875 133.957031 C 203.402344 133.613281 203.566406 133.242188 203.65625 132.839844 C 203.746094 132.4375 203.757812 132.03125 203.691406 131.625 C 203.625 131.21875 203.484375 130.839844 203.273438 130.484375 C 202.976562 130.632812 202.707031 130.824219 202.472656 131.058594 C 202.234375 131.292969 202.035156 131.554688 201.878906 131.847656 C 201.722656 132.140625 201.613281 132.453125 201.554688 132.777344 C 201.492188 133.105469 201.484375 133.433594 201.527344 133.765625 C 201.082031 133.21875 200.613281 132.695312 200.113281 132.203125 C 200.425781 131.902344 200.664062 131.554688 200.835938 131.164062 C 201.007812 130.769531 201.097656 130.355469 201.101562 129.925781 C 201.109375 129.496094 201.035156 129.082031 200.875 128.683594 C 200.714844 128.28125 200.484375 127.929688 200.183594 127.621094 C 199.910156 127.855469 199.683594 128.125 199.5 128.433594 C 199.316406 128.742188 199.1875 129.074219 199.113281 129.425781 C 199.039062 129.777344 199.027344 130.128906 199.070312 130.484375 C 199.117188 130.84375 199.21875 131.179688 199.375 131.503906 C 198.859375 131.039062 198.296875 130.585938 197.691406 130.140625 C 197.933594 129.78125 198.097656 129.386719 198.179688 128.957031 C 198.265625 128.527344 198.261719 128.101562 198.171875 127.675781 C 198.082031 127.25 197.914062 126.855469 197.664062 126.496094 C 197.414062 126.140625 197.105469 125.84375 196.738281 125.609375 C 196.527344 125.894531 196.367188 126.207031 196.261719 126.546875 C 196.152344 126.886719 196.101562 127.234375 196.109375 127.589844 C 196.117188 127.941406 196.183594 128.289062 196.304688 128.621094 C 196.425781 128.957031 196.597656 129.261719 196.820312 129.539062 C 196.285156 129.183594 195.714844 128.839844 195.113281 128.507812 C 195.050781 128.273438 194.964844 128.042969 194.855469 127.824219 C 194.75 127.605469 194.617188 127.398438 194.46875 127.207031 C 194.320312 127.015625 194.152344 126.839844 193.964844 126.679688 C 193.78125 126.519531 193.582031 126.378906 193.367188 126.261719 C 193.15625 126.140625 192.929688 126.042969 192.699219 125.96875 C 192.464844 125.894531 192.226562 125.84375 191.984375 125.816406 C 191.742188 125.789062 191.496094 125.789062 191.253906 125.808594 C 191.011719 125.832031 190.773438 125.875 190.535156 125.945312 C 190.59375 126.191406 190.671875 126.425781 190.773438 126.65625 C 190.878906 126.882812 191.003906 127.097656 191.152344 127.300781 C 191.300781 127.503906 191.46875 127.6875 191.652344 127.855469 C 191.839844 128.023438 192.042969 128.171875 192.257812 128.296875 C 192.472656 128.425781 192.703125 128.527344 192.941406 128.609375 C 193.175781 128.6875 193.421875 128.742188 193.671875 128.773438 C 193.917969 128.800781 194.167969 128.804688 194.417969 128.785156 C 194.667969 128.761719 194.914062 128.714844 195.15625 128.644531 L 195.15625 128.632812 C 195.894531 129.214844 196.597656 129.839844 197.261719 130.507812 C 196.914062 130.359375 196.550781 130.277344 196.175781 130.257812 C 195.796875 130.242188 195.429688 130.289062 195.070312 130.402344 C 194.710938 130.519531 194.378906 130.691406 194.082031 130.921875 C 193.785156 131.15625 193.535156 131.429688 193.335938 131.75 C 193.679688 131.996094 194.054688 132.167969 194.464844 132.261719 C 194.871094 132.355469 195.285156 132.371094 195.699219 132.300781 C 196.113281 132.230469 196.5 132.085938 196.855469 131.863281 C 197.210938 131.640625 197.511719 131.359375 197.753906 131.015625 C 198.488281 131.792969 199.167969 132.613281 199.792969 133.476562 C 199.445312 133.21875 199.066406 133.027344 198.652344 132.90625 C 198.234375 132.78125 197.8125 132.734375 197.382812 132.757812 C 196.949219 132.785156 196.535156 132.886719 196.140625 133.058594 C 195.746094 133.230469 195.390625 133.46875 195.078125 133.765625 C 195.394531 134.140625 195.769531 134.441406 196.203125 134.667969 C 196.640625 134.890625 197.101562 135.023438 197.589844 135.0625 C 198.082031 135.101562 198.558594 135.046875 199.023438 134.890625 C 199.492188 134.738281 199.910156 134.503906 200.277344 134.179688 C 200.863281 135.054688 201.378906 135.96875 201.832031 136.917969 C 201.515625 136.570312 201.152344 136.292969 200.730469 136.085938 C 200.3125 135.878906 199.867188 135.757812 199.402344 135.722656 C 198.9375 135.683594 198.480469 135.734375 198.03125 135.875 C 197.585938 136.011719 197.179688 136.226562 196.816406 136.519531 C 196.957031 136.722656 197.117188 136.90625 197.296875 137.074219 C 197.476562 137.242188 197.667969 137.390625 197.878906 137.523438 C 198.085938 137.652344 198.304688 137.757812 198.535156 137.84375 C 198.765625 137.929688 199.003906 137.992188 199.246094 138.027344 C 199.488281 138.066406 199.734375 138.078125 199.976562 138.066406 C 200.222656 138.054688 200.464844 138.019531 200.703125 137.960938 C 200.941406 137.898438 201.171875 137.816406 201.394531 137.710938 C 201.613281 137.601562 201.824219 137.476562 202.019531 137.328125 C 202.445312 138.285156 202.792969 139.269531 203.058594 140.28125 C 202.746094 139.925781 202.382812 139.640625 201.957031 139.425781 C 201.535156 139.210938 201.089844 139.082031 200.617188 139.042969 C 200.148438 139 199.683594 139.050781 199.230469 139.1875 C 198.777344 139.328125 198.367188 139.542969 198 139.84375 C 198.28125 140.242188 198.632812 140.574219 199.046875 140.835938 C 199.464844 141.097656 199.914062 141.265625 200.402344 141.347656 C 200.886719 141.425781 201.367188 141.40625 201.84375 141.292969 C 202.324219 141.175781 202.757812 140.976562 203.15625 140.683594 C 203.558594 142.371094 203.71875 144.078125 203.636719 145.808594 C 200.636719 145.65625 197.640625 145.746094 194.652344 146.074219 C 190.84375 146.480469 187.125 147.292969 183.492188 148.503906 C 182.511719 145.882812 182.023438 143.175781 182.027344 140.378906 C 182.027344 127.5625 192.433594 117.171875 205.269531 117.171875 C 218.109375 117.171875 228.515625 127.5625 228.515625 140.378906 Z M 228.515625 140.378906 " fill-opacity="1" fill-rule="nonzero"/></g></svg>